# xmcd
#
# Track frame offsets:
#  150
#  13595
#  27428
#  38880
#  50953
#  60132
#  81581
#  94357
#  112256
#  124576
#  135343
#  151606
#  160865
#  174279
#  188179
#  202957
#  220462
#  244760
#
# Disc length: 3560 seconds
#
# Revision: 0
# Processed by: cddbd v1.5.2PL0 Copyright (c) Steve Scherf et al.
# Submitted via: Collectorz.com_Music_Collector 6.9
#
DISCID=f40de612
DTITLE=Various Artist - The Best of my Love CD1
DYEAR=1900
DGENRE=
TTITLE0=Gilbert O'Sullivan - Clair
TTITLE1=Van Morrison - Brown Eyed Girl
TTITLE2=John Travolta - Sandy
TTITLE3=The Three Degrees - When will i see you again
TTITLE4=Wayne Fontana and The Mindbenders - A groovy kind of love
TTITLE5=chi-lites, the - Have ypu seen here
TTITLE6=Brotherhood Of Man - United we stand
TTITLE7=Shirley Bassey - All i ask of you
TTITLE8=Nino Tempo and April Stevens - Deep purple
TTITLE9=Phillips and teh Twilights, Phil - Sea of Love
TTITLE10=Nina Simone - My Baby Just Cares for Me
TTITLE11=Al Jarreau - Ain't no Sunshine
TTITLE12=King, Ben E - Stand by Me
TTITLE13=Aaron Neville - Tell it like it is
TTITLE14=George McCrae - Rock your baby
TTITLE15=Biggs, Barry - Love Comes Down
TTITLE16=womack and Patti Labelle, Bobby - Love has Finally come at last
TTITLE17=Dionne Warwick - That's what friends are fore
EXTD=
EXTT0=
EXTT1=
EXTT2=
EXTT3=
EXTT4=
EXTT5=
EXTT6=
EXTT7=
EXTT8=
EXTT9=
EXTT10=
EXTT11=
EXTT12=
EXTT13=
EXTT14=
EXTT15=
EXTT16=
EXTT17=
PLAYORDER=
